<svg width="318" height="434" viewBox="0 0 318 434" fill="none" xmlns="http://www.w3.org/2000/svg">
<path d="M89.2997 152.629L39.3823 360.431C37.279 369.171 37.9098 378.374 41.184 386.72C44.4583 395.066 50.2076 402.126 57.6069 406.886C76.6481 419.121 108.128 432.363 156.267 433.882C207.293 435.492 241.237 420.347 261.309 406.6C268.403 401.736 273.866 394.725 276.95 386.527C280.034 378.329 280.587 369.345 278.534 360.809L228.524 152.629" fill="#F4F4F4"/>
<path d="M158.911 162.281C225.094 162.281 278.745 143.588 278.745 120.528C278.745 97.4689 225.094 78.7756 158.911 78.7756C92.7287 78.7756 39.0771 97.4689 39.0771 120.528C39.0771 143.588 92.7287 162.281 158.911 162.281Z" fill="#262626"/>
<path d="M158.911 162.974C126.831 162.974 96.6617 158.618 73.9612 150.707C51.0331 142.718 38.4058 132 38.4058 120.527C38.4058 109.053 51.0319 98.3351 73.9612 90.3464C96.6617 82.4372 126.831 78.079 158.911 78.079C190.991 78.079 221.16 82.4354 243.861 90.3464C266.788 98.3351 279.416 109.053 279.416 120.527C279.416 132 266.79 142.718 243.861 150.707C221.16 158.618 190.991 162.974 158.911 162.974ZM158.911 79.4685C126.973 79.4685 96.9559 83.7986 74.3892 91.6611C52.0501 99.4446 39.7471 109.697 39.7471 120.528C39.7471 131.36 52.0501 141.612 74.3892 149.395C96.9559 157.258 126.973 161.588 158.911 161.588C190.849 161.588 220.866 157.258 243.432 149.395C265.771 141.612 278.074 131.36 278.074 120.528C278.074 109.697 265.771 99.4446 243.432 91.6611C220.866 83.7986 190.849 79.4685 158.911 79.4685Z" fill="#262626"/>
<path d="M158.911 146.375C245.866 146.375 316.357 126.339 316.357 101.623C316.357 76.9076 245.866 56.8715 158.911 56.8715C71.9561 56.8715 1.46509 76.9076 1.46509 101.623C1.46509 126.339 71.9561 146.375 158.911 146.375Z" fill="#9F65DD"/>
<path d="M158.911 147.068C116.797 147.068 77.1954 142.404 47.4017 133.936C17.3462 125.393 0.793701 113.918 0.793701 101.622C0.793701 89.3255 17.3462 77.8523 47.4017 69.3076C77.1954 60.8389 116.797 56.1755 158.911 56.1755C201.025 56.1755 240.626 60.8389 270.42 69.3076C300.476 77.8505 317.028 89.3261 317.028 101.622C317.028 113.917 300.476 125.391 270.42 133.936C240.626 142.404 201.025 147.068 158.911 147.068ZM158.911 57.5644C116.914 57.5644 77.4387 62.2111 47.7573 70.6474C33.364 74.7381 22.0752 79.4949 14.2029 84.7848C6.19516 90.1663 2.13509 95.8314 2.13509 101.623C2.13509 107.415 6.19516 113.081 14.2029 118.462C22.0752 123.752 33.364 128.509 47.7573 132.6C77.4387 141.038 116.912 145.682 158.911 145.682C200.911 145.682 240.383 141.036 270.064 132.6C284.458 128.509 295.747 123.752 303.619 118.462C311.627 113.081 315.687 107.415 315.687 101.623C315.687 95.8314 311.627 90.1663 303.619 84.7848C295.747 79.4949 284.458 74.7381 270.064 70.6474C240.383 62.2111 200.908 57.5668 158.911 57.5668V57.5644Z" fill="#262626"/>
<path d="M231.354 75.5406C231.354 95.3246 198.167 99.985 163.559 100.832C125.854 101.754 86.47 95.0218 86.47 75.5406C86.5242 55.7264 94.1805 36.7428 107.76 22.7518C121.34 8.76074 139.736 0.903992 158.913 0.903992C178.091 0.903992 196.486 8.76074 210.066 22.7518C223.646 36.7428 231.302 55.7264 231.357 75.5406H231.354Z" fill="white"/>
<path d="M221.952 71.624C221.777 71.624 221.61 71.5538 221.485 71.4285C221.36 71.3032 221.287 71.1325 221.282 70.9526C221.078 63.851 219.72 56.8353 217.264 50.1992C217.2 50.0276 217.205 49.8369 217.278 49.669C217.35 49.5012 217.484 49.37 217.65 49.3043C217.817 49.2386 218.001 49.2438 218.164 49.3187C218.326 49.3936 218.453 49.5321 218.517 49.7037C221.026 56.4848 222.414 63.6535 222.622 70.9101C222.628 71.0937 222.563 71.2721 222.441 71.4059C222.319 71.5398 222.151 71.6182 221.973 71.624H221.952Z" fill="#262626"/>
<path d="M211.934 38.5829C211.822 38.5832 211.712 38.5545 211.614 38.4995C211.516 38.4445 211.433 38.365 211.372 38.2682C202.521 24.3098 188.747 14.4726 172.981 10.8515C172.811 10.8082 172.665 10.6983 172.572 10.5451C172.48 10.3919 172.449 10.2076 172.486 10.0313C172.524 9.85498 172.626 9.70062 172.771 9.60102C172.917 9.50142 173.095 9.46444 173.266 9.49793C189.376 13.1975 203.451 23.2487 212.495 37.5112C212.561 37.6157 212.598 37.7366 212.603 37.8613C212.608 37.986 212.581 38.1097 212.523 38.2195C212.466 38.3292 212.381 38.4209 212.277 38.4849C212.173 38.5489 212.055 38.5828 211.934 38.5829Z" fill="#262626"/>
<path d="M156.535 101.61C124.506 101.61 100.122 96.0444 90.5687 86.4101C87.4023 83.2158 85.7974 79.5583 85.7974 75.54C85.7703 65.602 87.6415 55.7562 91.3037 46.5666C94.9658 37.3771 100.347 29.0245 107.139 21.9873C113.931 14.9502 122 9.36691 130.884 5.55733C139.768 1.74776 149.292 -0.213211 158.911 -0.213211C168.53 -0.213211 178.054 1.74776 186.938 5.55733C195.822 9.36691 203.891 14.9502 210.683 21.9873C217.475 29.0245 222.856 37.3771 226.518 46.5666C230.18 55.7562 232.051 65.602 232.024 75.54C232.024 84.8722 224.823 91.7401 210.619 95.9529C199.691 99.1945 184.302 101.017 163.575 101.523C161.191 101.581 158.844 101.61 156.535 101.61ZM158.909 1.38412C139.881 1.40629 121.638 9.2261 108.182 23.128C94.7268 37.0299 87.1581 55.8785 87.1365 75.5388C87.1365 79.1699 88.6059 82.4935 91.5041 85.4173C101.49 95.4939 128.418 100.995 163.541 100.138C192.365 99.4338 230.686 96.1163 230.686 75.5406C230.665 55.8798 223.096 37.0307 209.64 23.1288C196.184 9.22677 177.94 1.40729 158.911 1.38591L158.909 1.38412Z" fill="#262626"/>
<path d="M41.6805 107.613C46.8759 107.613 51.0876 103.262 51.0876 97.8941C51.0876 92.5263 46.8759 88.1748 41.6805 88.1748C36.4851 88.1748 32.2734 92.5263 32.2734 97.8941C32.2734 103.262 36.4851 107.613 41.6805 107.613Z" fill="white"/>
<path d="M41.6806 108.306C39.6874 108.306 37.7389 107.696 36.0817 106.552C34.4244 105.408 33.1327 103.781 32.3699 101.879C31.6072 99.9761 31.4076 97.8826 31.7964 95.8628C32.1853 93.843 33.1451 91.9877 34.5545 90.5315C35.9639 89.0753 37.7596 88.0836 39.7145 87.6819C41.6694 87.2801 43.6957 87.4863 45.5372 88.2744C47.3786 89.0625 48.9526 90.3971 50.0599 92.1093C51.1673 93.8216 51.7583 95.8348 51.7583 97.8941C51.7553 100.655 50.6925 103.301 48.8032 105.253C46.914 107.205 44.3524 108.303 41.6806 108.306ZM41.6806 88.8671C39.9526 88.8671 38.2634 89.3966 36.8266 90.3885C35.3898 91.3803 34.2699 92.7902 33.6087 94.4396C32.9474 96.0891 32.7744 97.9041 33.1115 99.6552C33.4486 101.406 34.2807 103.015 35.5026 104.277C36.7245 105.54 38.2813 106.399 39.9761 106.748C41.6709 107.096 43.4276 106.917 45.0241 106.234C46.6205 105.551 47.9851 104.394 48.9451 102.909C49.9051 101.425 50.4175 99.6795 50.4175 97.8941C50.4152 95.5007 49.494 93.2061 47.856 91.5137C46.218 89.8213 43.9971 88.8695 41.6806 88.8671Z" fill="#262626"/>
<path d="M158.911 135.448C164.106 135.448 168.318 131.097 168.318 125.729C168.318 120.361 164.106 116.01 158.911 116.01C153.716 116.01 149.504 120.361 149.504 125.729C149.504 131.097 153.716 135.448 158.911 135.448Z" fill="white"/>
<path d="M158.911 136.141C156.918 136.141 154.969 135.531 153.312 134.387C151.655 133.242 150.363 131.616 149.6 129.714C148.838 127.811 148.638 125.718 149.027 123.698C149.416 121.678 150.376 119.823 151.785 118.366C153.194 116.91 154.99 115.919 156.945 115.517C158.9 115.115 160.926 115.321 162.768 116.109C164.609 116.897 166.183 118.232 167.29 119.944C168.398 121.657 168.989 123.67 168.989 125.729C168.986 128.49 167.923 131.136 166.034 133.088C164.144 135.04 161.583 136.138 158.911 136.141ZM158.911 116.703C157.183 116.703 155.494 117.232 154.057 118.224C152.621 119.216 151.501 120.625 150.84 122.275C150.178 123.924 150.005 125.739 150.343 127.49C150.68 129.241 151.512 130.849 152.733 132.112C153.955 133.374 155.512 134.234 157.207 134.582C158.901 134.93 160.658 134.752 162.254 134.068C163.851 133.385 165.215 132.228 166.175 130.744C167.135 129.259 167.647 127.514 167.647 125.729C167.645 123.336 166.724 121.041 165.086 119.349C163.448 117.657 161.227 116.705 158.911 116.703Z" fill="#262626"/>
<path d="M276.121 107.613C281.316 107.613 285.528 103.262 285.528 97.8941C285.528 92.5263 281.316 88.1748 276.121 88.1748C270.926 88.1748 266.714 92.5263 266.714 97.8941C266.714 103.262 270.926 107.613 276.121 107.613Z" fill="white"/>
<path d="M276.121 108.306C274.128 108.306 272.179 107.696 270.522 106.552C268.865 105.408 267.573 103.781 266.81 101.879C266.048 99.9761 265.848 97.8826 266.237 95.8628C266.626 93.843 267.586 91.9877 268.995 90.5315C270.404 89.0753 272.2 88.0836 274.155 87.6819C276.11 87.2801 278.136 87.4863 279.978 88.2744C281.819 89.0625 283.393 90.3971 284.5 92.1093C285.608 93.8216 286.199 95.8348 286.199 97.8941C286.196 100.655 285.133 103.301 283.244 105.253C281.354 107.205 278.793 108.303 276.121 108.306ZM276.121 88.8671C274.393 88.8671 272.704 89.3966 271.267 90.3885C269.83 91.3803 268.71 92.7902 268.049 94.4396C267.388 96.0891 267.215 97.9041 267.552 99.6552C267.889 101.406 268.721 103.015 269.943 104.277C271.165 105.54 272.722 106.399 274.417 106.748C276.111 107.096 277.868 106.917 279.464 106.234C281.061 105.551 282.425 104.394 283.386 102.909C284.346 101.425 284.858 99.6795 284.858 97.8941C284.856 95.5007 283.934 93.2061 282.296 91.5137C280.658 89.8213 278.437 88.8695 276.121 88.8671Z" fill="#262626"/>
<path d="M226.128 125.729C231.323 125.729 235.535 121.378 235.535 116.01C235.535 110.642 231.323 106.29 226.128 106.29C220.932 106.29 216.72 110.642 216.72 116.01C216.72 121.378 220.932 125.729 226.128 125.729Z" fill="white"/>
<path d="M226.128 126.422C224.134 126.422 222.186 125.811 220.529 124.667C218.871 123.523 217.58 121.897 216.817 119.994C216.054 118.092 215.855 115.998 216.243 113.978C216.632 111.959 217.592 110.103 219.002 108.647C220.411 107.191 222.207 106.199 224.162 105.797C226.116 105.396 228.143 105.602 229.984 106.39C231.826 107.178 233.4 108.513 234.507 110.225C235.614 111.937 236.205 113.95 236.205 116.01C236.202 118.77 235.14 121.417 233.25 123.369C231.361 125.321 228.799 126.419 226.128 126.422ZM226.128 106.983C224.4 106.983 222.71 107.512 221.273 108.504C219.837 109.496 218.717 110.905 218.055 112.555C217.394 114.204 217.221 116.019 217.558 117.77C217.895 119.522 218.727 121.13 219.949 122.393C221.171 123.655 222.727 124.515 224.422 124.863C226.117 125.212 227.874 125.033 229.47 124.35C231.067 123.666 232.431 122.509 233.392 121.025C234.352 119.54 234.864 117.795 234.864 116.01C234.862 113.616 233.941 111.322 232.303 109.63C230.665 107.937 228.444 106.985 226.128 106.983Z" fill="#262626"/>
<path d="M91.694 127.052C96.8893 127.052 101.101 122.701 101.101 117.333C101.101 111.965 96.8893 107.613 91.694 107.613C86.4986 107.613 82.2869 111.965 82.2869 117.333C82.2869 122.701 86.4986 127.052 91.694 127.052Z" fill="white"/>
<path d="M91.694 127.746C89.7008 127.746 87.7524 127.135 86.0951 125.991C84.4378 124.847 83.1461 123.221 82.3833 121.318C81.6206 119.415 81.421 117.322 81.8099 115.302C82.1987 113.282 83.1585 111.427 84.5679 109.971C85.9773 108.515 87.773 107.523 89.7279 107.121C91.6828 106.719 93.7091 106.926 95.5506 107.714C97.3921 108.502 98.966 109.836 100.073 111.549C101.181 113.261 101.772 115.274 101.772 117.333C101.769 120.094 100.706 122.741 98.8167 124.693C96.9274 126.645 94.3659 127.743 91.694 127.746ZM91.694 108.306C89.9658 108.306 88.2763 108.835 86.8391 109.826C85.402 110.818 84.2817 112.228 83.62 113.877C82.9583 115.526 82.7849 117.342 83.1217 119.093C83.4585 120.844 84.2905 122.453 85.5123 123.716C86.7341 124.978 88.291 125.838 89.9859 126.187C91.6808 126.535 93.4377 126.357 95.0343 125.673C96.631 124.99 97.9956 123.833 98.9557 122.348C99.9158 120.864 100.428 119.118 100.428 117.333C100.426 114.94 99.5047 112.646 97.8674 110.954C96.23 109.262 94.0099 108.31 91.694 108.306Z" fill="#262626"/>
<path d="M258.661 66.9977C257.96 69.1916 256.525 71.0558 254.615 72.2562C252.704 73.4565 250.442 73.9146 248.234 73.5482C246.026 73.1818 244.017 72.0149 242.566 70.2567C241.116 68.4986 240.318 66.264 240.318 63.9536C240.318 63.7364 240.326 63.524 240.34 63.3116C246.765 64.4204 252.885 65.6489 258.661 66.9977Z" fill="white"/>
<path d="M249.724 74.3647C247.052 74.362 244.49 73.2642 242.601 71.3121C240.711 69.36 239.649 66.7131 239.646 63.9524C239.646 63.7203 239.655 63.4923 239.67 63.2649L239.719 62.5007L240.45 62.627C246.91 63.7418 253.087 64.9847 258.81 66.3203L259.53 66.4891L259.298 67.2138C258.636 69.2964 257.353 71.1094 255.634 72.3937C253.914 73.678 251.846 74.3678 249.724 74.3647ZM240.99 64.1266C241.029 66.1913 241.751 68.1799 243.037 69.7608C244.324 71.3416 246.095 72.4191 248.057 72.8135C250.019 73.208 252.053 72.8956 253.819 71.9284C255.585 70.9612 256.977 69.3977 257.762 67.4986C252.504 66.2868 246.869 65.154 240.99 64.1266Z" fill="#262626"/>
<path d="M76.4934 63.9536C76.4928 66.2444 75.7092 68.4615 74.2809 70.2136C72.8525 71.9657 70.8712 73.1404 68.6863 73.5303C66.5014 73.9203 64.2535 73.5006 62.339 72.3451C60.4244 71.1897 58.9664 69.3728 58.2219 67.215C63.9755 65.8566 70.0737 64.6095 76.4801 63.4869C76.4888 63.6395 76.4934 63.7963 76.4934 63.9536Z" fill="white"/>
<path d="M67.087 74.3647C65.0073 74.3617 62.9791 73.6958 61.2792 72.4579C59.5793 71.22 58.2904 69.4704 57.5884 67.4477L57.3347 66.7129L58.0709 66.5394C63.8528 65.1744 70.0084 63.9177 76.3661 62.8041L77.1028 62.6748L77.148 63.445C77.1578 63.6113 77.1625 63.7825 77.1625 63.9536C77.1594 66.7136 76.0969 69.3597 74.2081 71.3115C72.3193 73.2632 69.7583 74.3612 67.087 74.3647ZM59.14 67.7098C59.9579 69.5555 61.3539 71.0625 63.1026 71.9876C64.8514 72.9128 66.8508 73.202 68.7782 72.8087C70.7057 72.4154 72.4486 71.3624 73.7256 69.8198C75.0026 68.2772 75.7392 66.335 75.8164 64.3067C70.0385 65.3324 64.4367 66.4753 59.14 67.7098Z" fill="#262626"/>
<path d="M173.545 403.251L87.5505 352.638L154.099 231.937L213.562 266.935L224.98 309.963L173.545 403.251Z" fill="white"/>
<path opacity="0.3" d="M187.495 343.13C190.324 343.13 192.617 340.761 192.617 337.838C192.617 334.915 190.324 332.545 187.495 332.545C184.666 332.545 182.373 334.915 182.373 337.838C182.373 340.761 184.666 343.13 187.495 343.13Z" fill="#9F65DD"/>
<path opacity="0.3" d="M133.438 315.256C136.267 315.256 138.56 312.886 138.56 309.963C138.56 307.04 136.267 304.671 133.438 304.671C130.609 304.671 128.316 307.04 128.316 309.963C128.316 312.886 130.609 315.256 133.438 315.256Z" fill="#9F65DD"/>
<path d="M173.795 404.196L86.636 352.897L153.848 230.993L214.135 266.478L225.699 310.059L173.795 404.196ZM88.465 352.378L173.294 402.306L224.262 309.869L212.991 267.395L154.35 232.883L88.465 352.378Z" fill="#262626"/>
<path opacity="0.3" d="M213.562 266.935L198.448 294.348L224.979 309.963L213.562 266.935Z" fill="#9F65DD"/>
<path d="M224.979 310.656C224.863 310.656 224.749 310.625 224.648 310.565L198.116 294.95C197.961 294.859 197.848 294.708 197.801 294.531C197.754 294.353 197.778 294.164 197.866 294.004L212.979 266.591C213.045 266.471 213.143 266.375 213.262 266.314C213.38 266.252 213.514 266.229 213.646 266.246C213.777 266.263 213.901 266.32 214.001 266.41C214.101 266.5 214.173 266.618 214.208 266.75L225.626 309.776C225.654 309.879 225.657 309.987 225.638 310.091C225.618 310.196 225.575 310.294 225.512 310.379C225.45 310.464 225.369 310.532 225.277 310.58C225.184 310.627 225.083 310.651 224.979 310.651V310.656ZM199.363 294.089L223.904 308.533L213.343 268.732L199.363 294.089Z" fill="#292A2E"/>
<path d="M150.654 303C152.887 303 154.697 301.13 154.697 298.823C154.697 296.516 152.887 294.646 150.654 294.646C148.422 294.646 146.612 296.516 146.612 298.823C146.612 301.13 148.422 303 150.654 303Z" fill="#292A2E"/>
<path d="M188.574 320.814C190.807 320.814 192.617 318.944 192.617 316.637C192.617 314.33 190.807 312.46 188.574 312.46C186.341 312.46 184.531 314.33 184.531 316.637C184.531 318.944 186.341 320.814 188.574 320.814Z" fill="#292A2E"/>
<path d="M171.392 346.433C171.217 346.433 171.05 346.362 170.924 346.236C170.799 346.11 170.727 345.939 170.722 345.759C170.637 342.419 169.729 339.156 168.083 336.28C166.437 333.404 164.107 331.01 161.315 329.324C158.523 327.638 155.36 326.717 152.127 326.647C148.893 326.578 145.697 327.362 142.839 328.926C142.761 328.971 142.675 329 142.586 329.01C142.497 329.02 142.407 329.012 142.321 328.986C142.236 328.96 142.156 328.916 142.087 328.857C142.017 328.799 141.96 328.727 141.919 328.645C141.877 328.563 141.851 328.474 141.843 328.382C141.836 328.29 141.846 328.197 141.873 328.109C141.9 328.021 141.944 327.94 142.003 327.87C142.061 327.8 142.132 327.742 142.212 327.701C145.272 326.028 148.694 325.189 152.155 325.264C155.616 325.339 159.001 326.326 161.99 328.13C164.979 329.934 167.473 332.497 169.235 335.575C170.998 338.654 171.971 342.146 172.063 345.721C172.067 345.905 172.001 346.083 171.879 346.216C171.757 346.35 171.588 346.427 171.41 346.433H171.392Z" fill="#292A2E"/>
<path d="M154.172 294.549C151.994 294.521 149.869 293.852 148.046 292.621C147.903 292.515 147.806 292.354 147.777 292.173C147.747 291.993 147.788 291.808 147.89 291.659C147.992 291.51 148.148 291.408 148.322 291.377C148.496 291.345 148.675 291.386 148.82 291.49C148.874 291.528 152.808 294.318 157.204 292.584C157.369 292.523 157.551 292.532 157.71 292.608C157.869 292.683 157.993 292.82 158.055 292.99C158.118 293.159 158.114 293.346 158.044 293.512C157.974 293.678 157.845 293.81 157.683 293.878C156.562 294.323 155.372 294.55 154.172 294.549Z" fill="#292A2E"/>
<path d="M195.58 314.463C195.505 314.463 195.431 314.45 195.36 314.425C189.706 312.39 189.063 307.885 189.038 307.694C189.015 307.512 189.062 307.327 189.17 307.18C189.278 307.034 189.438 306.938 189.615 306.913C189.791 306.889 189.97 306.937 190.112 307.049C190.254 307.161 190.347 307.326 190.371 307.509C190.394 307.673 190.966 311.374 195.804 313.116C195.953 313.17 196.079 313.277 196.16 313.418C196.24 313.559 196.27 313.725 196.244 313.886C196.217 314.047 196.136 314.194 196.016 314.299C195.895 314.405 195.742 314.463 195.583 314.463H195.58Z" fill="#292A2E"/>
</svg>
