<svg width="32" height="32" viewBox="0 0 32 32" fill="none" xmlns="http://www.w3.org/2000/svg">
<path d="M20.8325 25H11.6795M30.9558 17.437L30.5301 20.3425C29.7872 25.4245 29.415 27.964 27.6225 29.482C25.8301 31 23.2016 31 17.9432 31H14.5688C9.3104 31 6.68196 31 4.8895 29.482C3.09703 27.964 2.72481 25.4245 1.98189 20.3425L1.55627 17.437C0.976582 13.4815 0.686736 11.503 1.51203 9.8125C2.33733 8.122 4.09166 7.093 7.60184 5.038L9.71466 3.8005C12.8999 1.933 14.4956 1 16.256 1C18.0164 1 19.6106 1.933 22.7974 3.8005L24.9102 5.038C28.4188 7.093 30.1747 8.122 31 9.8125" stroke="#9F65DD" stroke-width="1.5" stroke-linecap="round"/>
</svg>
