<svg width="28" height="22" viewBox="0 0 28 22" fill="none" xmlns="http://www.w3.org/2000/svg">
<path d="M4.5 0H23.5C24.6935 0 25.8381 0.474106 26.682 1.31802C27.5259 2.16193 28 3.30653 28 4.5V17.5C28 18.6935 27.5259 19.8381 26.682 20.682C25.8381 21.5259 24.6935 22 23.5 22H4.5C3.30653 22 2.16193 21.5259 1.31802 20.682C0.474106 19.8381 0 18.6935 0 17.5V4.5C0 3.30653 0.474106 2.16193 1.31802 1.31802C2.16193 0.474106 3.30653 0 4.5 0ZM27 5.206V4.5C27 3.57174 26.6313 2.6815 25.9749 2.02513C25.3185 1.36875 24.4283 1 23.5 1H4.5C3.57174 1 2.6815 1.36875 2.02513 2.02513C1.36875 2.6815 1 3.57174 1 4.5V5.206L14 12.428L27 5.206ZM1 6.35V17.5C1 18.4283 1.36875 19.3185 2.02513 19.9749C2.6815 20.6313 3.57174 21 4.5 21H23.5C24.4283 21 25.3185 20.6313 25.9749 19.9749C26.6313 19.3185 27 18.4283 27 17.5V6.35L14.243 13.437C14.1687 13.4783 14.085 13.5 14 13.5C13.915 13.5 13.8313 13.4783 13.757 13.437L1 6.35Z" fill="#9F65DD"/>
</svg>
