<svg width="32" height="32" viewBox="0 0 32 32" fill="none" xmlns="http://www.w3.org/2000/svg">
<path d="M20 4.58V8.828C21.132 9.322 22.172 10.028 23.072 10.928C24.96 12.816 26 15.328 26 18C26 20.672 24.96 23.182 23.072 25.072C21.184 26.962 18.672 28 16 28C13.328 28 10.818 26.96 8.92803 25.072C7.03803 23.184 6.00003 20.672 6.00003 18C6.00003 15.328 7.04003 12.818 8.92803 10.928C9.82803 10.028 10.868 9.322 12 8.828V4.58C8.77738 5.54081 6.00824 7.62951 4.19897 10.4642C2.3897 13.2988 1.66121 16.69 2.1467 20.0176C2.63219 23.3452 4.29923 26.3869 6.84297 28.5864C9.38672 30.786 12.6372 31.9964 16 31.9964C19.3629 31.9964 22.6133 30.786 25.1571 28.5864C27.7008 26.3869 29.3679 23.3452 29.8534 20.0176C30.3389 16.69 29.6104 13.2988 27.8011 10.4642C25.9918 7.62951 23.2227 5.54081 20 4.58ZM14 0H18V16H14V0Z" fill="#9F65DD"/>
</svg>
