<svg width="32" height="32" viewBox="0 0 32 32" fill="none" xmlns="http://www.w3.org/2000/svg">
<path fill-rule="evenodd" clip-rule="evenodd" d="M16 10.9995C16.2652 10.9995 16.5196 11.1048 16.7072 11.2924C16.8947 11.48 17.0001 11.7343 17.0001 11.9996V14.9999H20.0004C20.2656 14.9999 20.52 15.1053 20.7076 15.2928C20.8951 15.4804 21.0005 15.7347 21.0005 16C21.0005 16.2652 20.8951 16.5196 20.7076 16.7072C20.52 16.8947 20.2656 17.0001 20.0004 17.0001H17.0001V20.0004C17.0001 20.2656 16.8947 20.52 16.7072 20.7076C16.5196 20.8951 16.2652 21.0005 16 21.0005C15.7347 21.0005 15.4804 20.8951 15.2928 20.7076C15.1053 20.52 14.9999 20.2656 14.9999 20.0004V17.0001H11.9996C11.7343 17.0001 11.48 16.8947 11.2924 16.7072C11.1048 16.5196 10.9995 16.2652 10.9995 16C10.9995 15.7347 11.1048 15.4804 11.2924 15.2928C11.48 15.1053 11.7343 14.9999 11.9996 14.9999H14.9999V11.9996C14.9999 11.7343 15.1053 11.48 15.2928 11.2924C15.4804 11.1048 15.7347 10.9995 16 10.9995Z" fill="#9F65DD"/>
<path d="M20.5465 5.0249L18.7043 3.13671L20.1344 1.74057L21.3785 3.01469L23.1587 2.99269C23.9293 2.98357 24.6939 3.12862 25.4076 3.41931C26.1213 3.71 26.7697 4.14046 27.3146 4.68538C27.8595 5.2303 28.29 5.87867 28.5807 6.59238C28.8714 7.30608 29.0164 8.0707 29.0073 8.84128L28.9873 10.6215L30.2594 11.8656C30.8104 12.404 31.2482 13.0471 31.5471 13.7571C31.846 14.4671 32 15.2296 32 16C32 16.7704 31.846 17.5329 31.5471 18.2429C31.2482 18.9529 30.8104 19.596 30.2594 20.1344L28.9853 21.3785L29.0073 23.1587C29.0164 23.9293 28.8714 24.6939 28.5807 25.4076C28.29 26.1213 27.8595 26.7697 27.3146 27.3146C26.7697 27.8595 26.1213 28.29 25.4076 28.5807C24.6939 28.8714 23.9293 29.0164 23.1587 29.0073L21.3785 28.9873L20.1344 30.2594C19.596 30.8104 18.9529 31.2482 18.2429 31.5471C17.5329 31.846 16.7704 32 16 32C15.2296 32 14.4671 31.846 13.7571 31.5471C13.0471 31.2482 12.404 30.8104 11.8656 30.2594L10.6215 28.9853L8.84128 29.0073C8.0707 29.0164 7.30608 28.8714 6.59238 28.5807C5.87867 28.29 5.2303 27.8595 4.68538 27.3146C4.14046 26.7697 3.71 26.1213 3.41931 25.4076C3.12862 24.6939 2.98357 23.9293 2.99269 23.1587L3.01269 21.3785L1.74057 20.1344C1.18959 19.596 0.751787 18.9529 0.452882 18.2429C0.153977 17.5329 0 16.7704 0 16C0 15.2296 0.153977 14.4671 0.452882 13.7571C0.751787 13.0471 1.18959 12.404 1.74057 11.8656L3.01469 10.6215L2.99269 8.84128C2.98357 8.0707 3.12862 7.30608 3.41931 6.59238C3.71 5.87867 4.14046 5.2303 4.68538 4.68538C5.2303 4.14046 5.87867 3.71 6.59238 3.41931C7.30608 3.12862 8.0707 2.98357 8.84128 2.99269L10.6215 3.01269L11.8656 1.74057C12.404 1.18959 13.0471 0.751787 13.7571 0.452882C14.4671 0.153977 15.2296 0 16 0C16.7704 0 17.5329 0.153977 18.2429 0.452882C18.9529 0.751787 19.596 1.18959 20.1344 1.74057L18.7043 3.13671C18.3522 2.77624 17.9315 2.48981 17.4671 2.29425C17.0027 2.09869 16.5039 1.99795 16 1.99795C15.4961 1.99795 14.9973 2.09869 14.5329 2.29425C14.0685 2.48981 13.6478 2.77624 13.2957 3.13671L11.4555 5.0249L8.81528 4.99289C8.31158 4.98726 7.81184 5.08235 7.34541 5.27258C6.87899 5.4628 6.45528 5.74432 6.09918 6.1006C5.74309 6.45689 5.46179 6.88074 5.27181 7.34727C5.08183 7.8138 4.987 8.31359 4.99289 8.81728L5.0249 11.4535L3.13671 13.2957C2.77624 13.6478 2.48981 14.0685 2.29425 14.5329C2.09869 14.9973 1.99795 15.4961 1.99795 16C1.99795 16.5039 2.09869 17.0027 2.29425 17.4671C2.48981 17.9315 2.77624 18.3522 3.13671 18.7043L5.0249 20.5445L4.99289 23.1847C4.98726 23.6884 5.08235 24.1882 5.27258 24.6546C5.4628 25.121 5.74432 25.5447 6.1006 25.9008C6.45689 26.2569 6.88074 26.5382 7.34727 26.7282C7.8138 26.9182 8.31359 27.013 8.81728 27.0071L11.4535 26.9751L13.2957 28.8633C13.6478 29.2238 14.0685 29.5102 14.5329 29.7057C14.9973 29.9013 15.4961 30.002 16 30.002C16.5039 30.002 17.0027 29.9013 17.4671 29.7057C17.9315 29.5102 18.3522 29.2238 18.7043 28.8633L20.5445 26.9751L23.1847 27.0071C23.6884 27.0127 24.1882 26.9176 24.6546 26.7274C25.121 26.5372 25.5447 26.2557 25.9008 25.8994C26.2569 25.5431 26.5382 25.1193 26.7282 24.6527C26.9182 24.1862 27.013 23.6864 27.0071 23.1827L26.9751 20.5465L28.8633 18.7043C29.2238 18.3522 29.5102 17.9315 29.7057 17.4671C29.9013 17.0027 30.002 16.5039 30.002 16C30.002 15.4961 29.9013 14.9973 29.7057 14.5329C29.5102 14.0685 29.2238 13.6478 28.8633 13.2957L26.9751 11.4555L27.0071 8.81528C27.0127 8.31158 26.9176 7.81184 26.7274 7.34541C26.5372 6.87899 26.2557 6.45528 25.8994 6.09918C25.5431 5.74309 25.1193 5.46179 24.6527 5.27181C24.1862 5.08183 23.6864 4.987 23.1827 4.99289L20.5465 5.0249Z" fill="#9F65DD"/>
</svg>
