<svg width="50" height="50" viewBox="0 0 50 50" fill="none" xmlns="http://www.w3.org/2000/svg">
<circle cx="25" cy="25" r="25" fill="#9F65DD"/>
<path d="M31.34 11.6667H18.66C17.1147 11.6667 16.3427 11.6667 15.7187 11.884C15.1306 12.093 14.5985 12.4345 14.1636 12.8821C13.7286 13.3297 13.4026 13.8715 13.2107 14.4653C13 15.108 13 15.9027 13 17.4933V36.1653C13 37.3093 14.3133 37.9173 15.144 37.1573C15.377 36.942 15.6827 36.8224 16 36.8224C16.3173 36.8224 16.623 36.942 16.856 37.1573L17.5 37.7467C17.9083 38.1242 18.4439 38.3339 19 38.3339C19.5561 38.3339 20.0917 38.1242 20.5 37.7467C20.9083 37.3691 21.4439 37.1594 22 37.1594C22.5561 37.1594 23.0917 37.3691 23.5 37.7467C23.9083 38.1242 24.4439 38.3339 25 38.3339C25.5561 38.3339 26.0917 38.1242 26.5 37.7467C26.9083 37.3691 27.4439 37.1594 28 37.1594C28.5561 37.1594 29.0917 37.3691 29.5 37.7467C29.9083 38.1242 30.4439 38.3339 31 38.3339C31.5561 38.3339 32.0917 38.1242 32.5 37.7467L33.144 37.1573C33.377 36.942 33.6827 36.8224 34 36.8224C34.3173 36.8224 34.623 36.942 34.856 37.1573C35.6867 37.9173 37 37.3093 37 36.1653V17.4933C37 15.9027 37 15.1067 36.7893 14.4667C36.5976 13.8725 36.2716 13.3306 35.8367 12.8827C35.4018 12.4348 34.8696 12.0931 34.2813 11.884C33.6573 11.6667 32.8853 11.6667 31.34 11.6667Z" stroke="white" stroke-width="1.5"/>
<path d="M21.6667 22.8667L23.5721 25L28.3334 19.6667" stroke="white" stroke-width="1.5" stroke-linecap="round" stroke-linejoin="round"/>
<path d="M19 29.6667H31" stroke="white" stroke-width="1.5" stroke-linecap="round"/>
</svg>
