<svg width="50" height="50" viewBox="0 0 50 50" fill="none" xmlns="http://www.w3.org/2000/svg">
<circle cx="25" cy="25" r="25" fill="#9F65DD"/>
<path fill-rule="evenodd" clip-rule="evenodd" d="M23.6666 11.6667C26.2439 11.6667 28.3333 13.756 28.3333 16.3333C28.3333 18.8247 26.3809 20.8602 23.9227 20.9931L23.6666 21C21.0893 21 18.9999 18.9107 18.9999 16.3333C18.9999 13.8419 20.9523 11.8064 23.4106 11.6736L23.6666 11.6667ZM14.3333 35.6667H26.0702C25.5932 34.8424 25.2681 33.9392 25.1106 33H16.9999V30.8667L17.0069 30.6078C17.1354 28.21 19.0391 26.3333 21.3333 26.3333H25.9999L26.2442 26.3404C26.4823 26.3544 26.7154 26.3885 26.9422 26.4412C27.6164 25.66 28.4347 25.0161 29.3526 24.5446C28.3569 23.9849 27.2146 23.6667 25.9999 23.6667H21.3333L21.0448 23.6727C17.3126 23.8283 14.3333 26.9896 14.3333 30.8667V35.6667ZM21.6666 16.3333C21.6666 15.2287 22.5621 14.3333 23.6666 14.3333C24.7712 14.3333 25.6666 15.2287 25.6666 16.3333C25.6666 17.4379 24.7712 18.3333 23.6666 18.3333C22.5621 18.3333 21.6666 17.4379 21.6666 16.3333ZM29.0814 37.0601L32.9999 34.6667L36.9185 37.0601L35.8531 32.5937L39.3403 29.6066L34.7633 29.2396L32.9999 25L31.2366 29.2396L26.6596 29.6066L30.1468 32.5937L29.0814 37.0601Z" fill="white"/>
</svg>
