<svg width="32" height="32" viewBox="0 0 32 32" fill="none" xmlns="http://www.w3.org/2000/svg">
<path d="M26.7175 5.2825C25.19 3.75346 23.1868 2.79097 21.0386 2.5539C18.8903 2.31684 16.7255 2.81937 14.9013 3.97856C13.0772 5.13774 11.7029 6.88427 11.0052 8.92984C10.3075 10.9754 10.3281 13.1978 11.0638 15.23L3.93875 22.355C3.79941 22.4938 3.68891 22.6588 3.61361 22.8405C3.53831 23.0223 3.4997 23.2171 3.5 23.4137V27C3.5 27.3978 3.65804 27.7794 3.93934 28.0607C4.22065 28.342 4.60218 28.5 5 28.5H9C9.13261 28.5 9.25979 28.4473 9.35356 28.3536C9.44732 28.2598 9.5 28.1326 9.5 28V25.5H12C12.1326 25.5 12.2598 25.4473 12.3536 25.3536C12.4473 25.2598 12.5 25.1326 12.5 25V22.5H15C15.0657 22.5001 15.1307 22.4872 15.1914 22.4621C15.2521 22.437 15.3073 22.4002 15.3538 22.3538L16.77 20.9363C17.8057 21.3107 18.8987 21.5015 20 21.5H20.0125C21.8904 21.4975 23.7254 20.9386 25.2857 19.8937C26.8461 18.8489 28.0617 17.3651 28.7792 15.6297C29.4967 13.8943 29.6838 11.9852 29.3168 10.1436C28.9499 8.30193 28.0453 6.61034 26.7175 5.2825ZM28.495 12.2825C28.3513 16.81 24.545 20.4975 20.0113 20.5037H20C18.9206 20.5059 17.8509 20.301 16.8488 19.9C16.7564 19.8591 16.6538 19.8471 16.5545 19.8656C16.4552 19.8841 16.3639 19.9323 16.2925 20.0037L14.7925 21.5037H12C11.8674 21.5037 11.7402 21.5564 11.6464 21.6502C11.5527 21.744 11.5 21.8711 11.5 22.0037V24.5037H9C8.86739 24.5037 8.74022 24.5564 8.64645 24.6502C8.55268 24.744 8.5 24.8711 8.5 25.0037V27.5037H5C4.86739 27.5037 4.74022 27.4511 4.64645 27.3573C4.55268 27.2635 4.5 27.1364 4.5 27.0037V23.4137C4.50071 23.2813 4.5532 23.1543 4.64625 23.06L12 15.7075C12.0715 15.6361 12.1196 15.5448 12.1381 15.4455C12.1567 15.3462 12.1447 15.2436 12.1038 15.1512C11.7014 14.1456 11.4964 13.0719 11.5 11.9887C11.5 7.455 15.1938 3.64875 19.7213 3.5C20.8846 3.46118 22.0435 3.6617 23.1261 4.08914C24.2088 4.51657 25.1921 5.16181 26.0151 5.98486C26.8382 6.80791 27.4834 7.79124 27.9109 8.87388C28.3383 9.95653 28.5388 11.1154 28.5 12.2787L28.495 12.2825ZM23.5 9.5C23.5 9.69778 23.4414 9.89112 23.3315 10.0556C23.2216 10.22 23.0654 10.3482 22.8827 10.4239C22.7 10.4996 22.4989 10.5194 22.3049 10.4808C22.1109 10.4422 21.9327 10.347 21.7929 10.2071C21.653 10.0673 21.5578 9.88907 21.5192 9.69509C21.4806 9.50111 21.5004 9.30004 21.5761 9.11732C21.6518 8.93459 21.78 8.77841 21.9444 8.66853C22.1089 8.55865 22.3022 8.5 22.5 8.5C22.7652 8.5 23.0196 8.60536 23.2071 8.79289C23.3946 8.98043 23.5 9.23478 23.5 9.5Z" fill="#9F65DD"/>
</svg>
