<svg width="36" height="36" viewBox="0 0 36 36" fill="none" xmlns="http://www.w3.org/2000/svg">
<path d="M5.16667 7.66667V14.775C5.16667 20.0667 5.16667 22.7133 6.795 24.3567C8.42167 26 11.04 26 16.2783 26H19.0567C24.2933 26 26.9117 26 28.54 24.3567C30.1667 22.7117 30.1667 20.0667 30.1667 14.775V7.66667M5.16667 7.66667H30.1667M5.16667 7.66667L6.36833 5.10333C7.30167 3.11333 7.76833 2.12 8.71167 1.56C9.65667 1 10.8667 1 13.2917 1H22.0417C24.465 1 25.6767 1 26.6217 1.56C27.5667 2.12 28.0333 3.11333 28.965 5.10333L30.1667 7.66667M15.1667 12.6667H20.1667M17.6667 30.1667V34.3333M17.6667 30.1667H9.33333M17.6667 30.1667H26M9.33333 30.1667H5.16667C4.0616 30.1667 3.00179 30.6057 2.22039 31.3871C1.43899 32.1685 1 33.2283 1 34.3333M9.33333 30.1667V34.3333M26 30.1667H30.1667C31.2717 30.1667 32.3315 30.6057 33.1129 31.3871C33.8943 32.1685 34.3333 33.2283 34.3333 34.3333M26 30.1667V34.3333" stroke="#9F65DD" stroke-width="1.5" stroke-linecap="round" stroke-linejoin="round"/>
</svg>
